<svg xmlns="http://www.w3.org/2000/svg" viewBox="0 0 198 152.82"><defs><style>.cls-1{fill:#1f1f1f;fill-rule:evenodd;}</style></defs><g id="Layer_2" data-name="Layer 2"><g id="svg41117"><path id="path-1" class="cls-1" d="M196.24,117c-3.87,4.88-13.34,8.36-13.34,8.36l-70.5,25.32V132l51.88-18.48c5.89-2.11,6.79-5.1,2-6.66s-13.43-1.12-19.32,1L112.4,120V100.62l2-.67a118.16,118.16,0,0,1,24-5.09c14-1.55,31.24.21,44.74,5.33C198.39,105,200.1,112.08,196.24,117ZM119.11,85.17V37.41c0-5.6-1-10.77-6.29-12.23-4-1.29-6.53,2.45-6.53,8.06V152.82L74,142.58V0c13.71,2.55,33.69,8.56,44.43,12.18,27.31,9.38,36.57,21,36.57,47.35C155,85.16,139.22,94.87,119.11,85.17ZM14.86,130c-15.62-4.4-18.22-13.57-11.1-18.85,6.58-4.87,17.77-8.54,17.77-8.54L67.77,86.19v18.74L34.5,116.84c-5.88,2.11-6.78,5.1-2,6.66s13.44,1.12,19.32-1l16-5.8v16.78l-3.18.53a104.65,104.65,0,0,1-49.73-4Z"/></g></g></svg>