<svg xmlns="http://www.w3.org/2000/svg" viewBox="0 0 86.04 86.09"><defs><style>.cls-1{fill:#fff;}</style></defs><g id="Layer_2" data-name="Layer 2"><g id="Layer_1-2" data-name="Layer 1"><path class="cls-1" d="M38.73,85.91a42.74,42.74,0,0,1-19.1-6.78c-4.83-3.15-5.92-4.44-5.92-7,0-5.19,5.71-14.29,15.48-24.66,5.54-5.89,13.27-12.79,14.11-12.6,1.62.36,14.61,13,19.48,19C70.47,63.27,74,71,72.21,74.44c-1.37,2.61-9.84,7.73-16.06,9.7A47.25,47.25,0,0,1,38.73,85.91ZM7.18,66.7c-4-6.15-6-12.22-7-21-.32-2.9-.21-4.55.74-10.5A42.92,42.92,0,0,1,11.36,14c2.15-2.24,2.35-2.3,5-1.41,3.19,1.08,6.6,3.44,11.89,8.22l3.09,2.8-1.69,2.07C21.8,35.27,13.54,48.9,10.43,57.33c-1.69,4.58-2.37,9.18-1.64,11.09.49,1.29,0,.81-1.61-1.71Zm70.46,1c.39-1.94-.11-5.49-1.28-9.08-2.55-7.76-11.06-22.21-18.87-32L55,23.55l2.66-2.44a57.26,57.26,0,0,1,8.49-6.73c2-1.28,5-2.41,6.25-2.41.78,0,3.52,2.85,5.73,6a45.18,45.18,0,0,1,7.22,16.69,55.74,55.74,0,0,1,.13,16.21A51.78,51.78,0,0,1,82.28,61a55,55,0,0,1-4.41,7.55c-.54.69-.54.69-.24-.79ZM39.44,10.51A53.78,53.78,0,0,0,27.2,6.18,22.79,22.79,0,0,0,23.12,6C20.58,6.08,20.7,6,24.76,4a41.5,41.5,0,0,1,10-3.34,51.62,51.62,0,0,1,16.64,0,46.66,46.66,0,0,1,13,4.84l.9.56L63.26,6c-4.11-.2-10.11,1.46-16.55,4.59A34.29,34.29,0,0,1,43,12.22c-.13,0-1.71-.79-3.52-1.71Z"/></g></g></svg>